<svg width="96" height="48" xmlns="http://www.w3.org/2000/svg">

 <g>
  <title>background</title>
  <rect fill="none" id="canvas_background" height="50" width="98" y="-1" x="-1"/>
 </g>
 <g>
  <title>Layer 1</title>
  <path id="svg_1" d="m94.298843,16.428013l-12.012543,-1.306839c-0.758965,-0.082935 -1.408875,-0.633316 -1.722939,-1.465169l-4.296417,-12.020421c-0.69136,-1.985393 -3.140541,-1.985393 -3.820992,0l-4.268074,12.020421c-0.283516,0.834366 -0.96833,1.389773 -1.722923,1.46768l-12.016903,1.301816c-1.788364,0.196026 -2.508068,2.779551 -1.166798,4.171837l9.044296,9.160446c0.58886,0.583054 0.828754,1.462658 0.658642,2.337236l-2.715256,12.842216c-0.414371,2.030624 1.478676,3.694336 3.064205,2.618706l10.014809,-6.777977c0.645554,-0.437286 1.448135,-0.437286 2.093697,0l10.014809,6.777977c1.592079,1.073116 3.482933,-0.557919 3.064209,-2.613678l-2.682541,-12.847244c-0.174469,-0.874578 0.074142,-1.746643 0.658646,-2.342262l9.042107,-9.160446c1.312935,-1.382236 0.55397,-3.965757 -1.234406,-4.164299l0.004372,0zm-72.284632,-13.533339l4.209187,11.761566c0.623747,1.65868 1.969378,2.799652 3.517838,2.973063l11.848974,1.241497l-8.889462,9.004631c-1.173334,1.196264 -1.68585,3.028355 -1.334724,4.815208l2.682537,12.595924l-9.853422,-6.669914c-0.649918,-0.44231 -1.395796,-0.673531 -2.150394,-0.673531s-1.498302,0.23122 -2.150396,0.673531l-9.792361,6.629704l2.660731,-12.590897c0.348947,-1.776804 -0.174475,-3.618948 -1.347815,-4.774998l-8.854562,-8.97196l11.750836,-1.276686c1.592078,-0.165869 2.987868,-1.367155 3.544005,-3.015785l4.156847,-11.723867m0,-2.746877c-0.785135,0 -1.570267,0.495092 -1.908312,1.487788l-4.263712,12.022934c-0.283523,0.834366 -0.970513,1.389773 -1.722934,1.46768l-12.016906,1.301816c-1.78836,0.196026 -2.508066,2.779551 -1.166796,4.171837l9.042122,9.160446c0.588851,0.583054 0.828753,1.462658 0.65864,2.337236l-2.715253,12.842216c-0.327139,1.590824 0.763323,2.957985 2.017356,2.957985c0.348949,0 0.704439,-0.105556 1.046845,-0.339279l10.014817,-6.777977c0.322777,-0.218647 0.686991,-0.326714 1.046846,-0.326714s0.726248,0.108067 1.046844,0.326714l10.016996,6.777977c0.348949,0.236233 0.708801,0.339279 1.057751,0.339279c1.247482,0 2.333591,-1.34454 2.006454,-2.952957l-2.682549,-12.847244c-0.174473,-0.874578 0.074154,-1.746643 0.658642,-2.342262l9.044304,-9.160446c1.31292,-1.382236 0.553955,-3.965757 -1.234402,-4.164299l-12.010365,-1.306839c-0.758963,-0.082935 -1.408882,-0.633316 -1.722935,-1.465169l-4.296421,-12.020421c-0.348949,-0.992696 -1.134085,-1.487788 -1.914854,-1.487788l-0.002182,-0.002513z" fill="#FAB400"/>
  <line stroke-linecap="null" stroke-linejoin="null" id="svg_2" y2="46.049648" x2="47.361705" y1="-3.879431" x1="47.219861" fill-opacity="null" stroke-opacity="null" stroke-width="null" stroke="null" fill="none"/>
  <line stroke-linecap="null" stroke-linejoin="null" id="svg_4" y2="47.751776" x2="96" y1="0" x1="48" fill-opacity="null" stroke-opacity="null" stroke-width="null" stroke="null" fill="none"/>
  <line stroke-linecap="null" stroke-linejoin="null" id="svg_6" y2="48.036761" x2="47.926469" y1="0.242651" x1="0.27942" fill-opacity="null" stroke-opacity="null" stroke-width="null" stroke="null" fill="none"/>
 </g>
</svg>